<svg width="86" height="43" viewBox="0 0 86 43" fill="none" xmlns="http://www.w3.org/2000/svg">
<g opacity="0.2">
<path d="M55.2415 42.3844C47.0907 42.3844 38.935 42.3989 30.7842 42.3795C27.1638 42.3698 25.6619 40.8634 25.5738 37.2355C25.5395 35.9471 25.6178 34.649 25.5444 33.3606C25.4808 32.2223 26.0826 32.0286 27.0415 32.0092C28.0347 31.9898 28.3429 32.45 28.2744 33.3315C28.2597 33.4913 28.2793 33.656 28.2793 33.8159C28.2157 40.2628 27.883 39.5847 34.2823 39.5895C49.1993 39.6041 64.1212 39.5944 79.0383 39.5895C82.4042 39.5895 82.4776 39.512 82.4776 36.2232C82.4825 26.376 82.4825 16.5288 82.4776 6.68156C82.4776 3.70754 82.1205 3.34426 79.1068 3.33942C63.2895 3.32973 47.4723 3.32973 31.66 3.33942C28.7637 3.33942 28.3038 3.83832 28.2793 6.7639C28.2695 7.89248 28.294 9.02591 28.2793 10.1545C28.2597 11.7965 28.0004 13.5499 30.6472 13.2399C31.6062 13.1285 31.5279 13.9761 31.5279 14.6155C31.5279 15.2791 31.4985 15.9911 30.5739 15.996C26.0924 16.0153 21.606 16.0202 17.1246 15.996C15.9846 15.9911 16.2635 15.0418 16.1901 14.3782C16.1069 13.6032 16.4054 13.1769 17.2811 13.1915C19.3995 13.2205 21.5229 13.1237 23.6364 13.2254C25.0258 13.2883 25.5493 12.7604 25.5347 11.4381C25.5102 9.42309 25.4857 7.39843 25.5934 5.3883C25.7548 2.34162 27.2861 0.723832 30.339 0.714145C47.1347 0.660864 63.9255 0.656021 80.7213 0.718989C83.7203 0.728676 85.325 2.53053 85.3299 5.49002C85.3495 16.1461 85.3495 26.7974 85.3299 37.4535C85.325 40.7569 83.7448 42.365 80.4375 42.3795C72.0372 42.3989 63.6418 42.3844 55.2415 42.3844Z" fill="black"/>
<path d="M54.7261 26.9713C51.6917 26.7337 48.7901 25.2604 46.2606 22.6677C40.9198 17.1759 34.4013 11.1451 28.9117 5.79595C28.0721 4.98275 27.6788 4.56031 28.6566 3.50948C29.7195 2.36889 30.2243 2.74381 31.1277 3.65734C36.3675 8.9537 42.7213 14.8525 47.993 20.1224C53.169 25.2868 57.5479 25.3026 62.7399 20.1436C68.0222 14.8947 74.63 8.74775 79.923 3.50947C80.6457 2.79132 81.2516 1.84083 82.4313 3.1504C83.4144 4.24875 83.0956 4.74512 82.1656 5.65865C76.5166 11.1979 69.6537 17.7357 64.0206 23.2908C61.6292 25.6564 58.7277 26.9871 54.7261 26.9713Z" fill="black"/>
<path d="M68.2361 23.3437C69.0902 23.3622 69.4835 24.0651 69.9689 24.546C74.1533 28.7139 78.2825 32.9435 82.4792 37.1052C83.3579 37.9745 84.0707 38.7082 82.9523 39.8612C81.8156 41.0327 80.771 40.6196 79.8063 39.6516C75.6034 35.4343 71.4067 31.2109 67.2346 26.969C66.7061 26.4326 65.9135 25.9086 66.5034 24.9159C66.915 24.2007 67.3574 23.5102 68.2361 23.3437Z" fill="black"/>
<path d="M42.3788 23.355C43.5663 23.2383 43.7575 24.0493 44.1746 24.5654C44.6149 25.1123 44.6786 25.6284 44.1688 26.169C39.7893 30.8202 35.4041 35.459 31.042 40.1285C30.0572 41.1792 29.501 40.104 28.8812 39.6739C28.1513 39.1639 27.9022 38.4942 28.6842 37.6709C33.0463 33.0751 37.3853 28.4485 41.7416 23.8466C41.9849 23.5824 42.3151 23.398 42.3788 23.355Z" fill="black"/>
<path d="M25.4901 28.3328C23.3815 28.328 20.9108 28.3425 18.8022 28.3183C18.357 28.3135 17.7552 28.4927 17.5693 27.8678C17.3834 27.243 17.3687 25.7754 17.9656 25.7076C19.5458 25.5187 20.0253 25.7076 21.0331 25.7124C24.3551 25.7221 28.044 25.7172 31.366 25.7076C32.3004 25.7076 33.137 25.693 33.1223 27.0396C33.1126 28.4103 32.2221 28.328 31.3219 28.3328C29.3796 28.3377 27.4373 28.3328 25.4901 28.3328Z" fill="black"/>
<path d="M18.0933 22.4187C15.9846 22.4139 10.7932 22.4284 8.68452 22.4042C8.23931 22.3993 7.63754 22.5786 7.45163 21.9537C7.26571 21.3289 7.25104 19.8612 7.84791 19.7934C9.42817 19.6045 12.6284 19.7934 13.6362 19.7983C16.9582 19.808 20.6471 19.8031 23.9691 19.7934C24.9035 19.7934 25.7401 19.7789 25.7254 21.1254C25.7157 22.4962 24.8252 22.4139 23.925 22.4187C21.9876 22.4236 20.0404 22.4187 18.0933 22.4187Z" fill="black"/>
</g>
<path d="M11.0995 15.5235C10.7555 15.5181 9.90846 15.5342 9.56443 15.5074C9.49179 15.5021 9.39361 15.7001 9.36328 15.0096C9.33295 14.3191 9.33056 12.6973 9.42794 12.6224C9.68576 12.4136 10.2079 12.6224 10.3723 12.6277C10.9143 12.6384 11.5162 12.6331 12.0581 12.6224C12.2106 12.6224 12.3471 12.6063 12.3447 14.0943C12.3431 15.6091 12.1978 15.5181 12.051 15.5235C11.7349 15.5288 11.4172 15.5235 11.0995 15.5235Z" fill="#00DFC3"/>
<path d="M2.09949 22.5235C1.75546 22.5181 0.908461 22.5342 0.564432 22.5074C0.491795 22.5021 0.393615 22.7001 0.363283 22.0096C0.332951 21.3191 0.330556 19.6973 0.427938 19.6224C0.68576 19.4136 1.20789 19.6224 1.37232 19.6277C1.9143 19.6384 2.51615 19.6331 3.05814 19.6224C3.2106 19.6224 3.34709 19.6063 3.3447 21.0943C3.3431 22.6091 3.19782 22.5181 3.05095 22.5235C2.73486 22.5288 2.41717 22.5235 2.09949 22.5235Z" fill="#00B5FF"/>
<path d="M13.0995 29.5235C12.7555 29.5181 11.9085 29.5342 11.5644 29.5074C11.4918 29.5021 11.3936 29.7001 11.3633 29.0096C11.333 28.3191 11.3306 26.6973 11.4279 26.6224C11.6858 26.4136 12.2079 26.6224 12.3723 26.6277C12.9143 26.6384 13.5162 26.6331 14.0581 26.6224C14.2106 26.6224 14.3471 26.6063 14.3447 28.0943C14.3431 29.6091 14.1978 29.5181 14.051 29.5235C13.7349 29.5288 13.4172 29.5235 13.0995 29.5235Z" fill="#00DFC3"/>
</svg>
